<?xml version="1.0" encoding="UTF-8"?>
<svg id="Layer_2" data-name="Layer 2" xmlns="http://www.w3.org/2000/svg" viewBox="0 0 1053.42 295">
  <defs>
    <style>
      .cls-1 {
        fill: #fff;
      }

      .cls-1, .cls-2 {
        stroke: #a94cff;
        stroke-miterlimit: 10;
        stroke-width: 12px;
      }

      .cls-2 {
        fill: none;
        stroke-linecap: round;
      }

      .cls-3 {
        fill: #a94cff;
      }
    </style>
  </defs>
  <g id="Layer_1-2" data-name="Layer 1">
    <g>
      <circle class="cls-1" cx="147.5" cy="147.5" r="141.5"/>
      <path class="cls-2" d="M232,167c0,24.3-29.55,44-66,44s-66-19.7-66-44"/>
      <path class="cls-2" d="M153.04,234.67c21.54,3.34,39.36.58,53.44-8.29"/>
      <path class="cls-2" d="M118,94c0-39.56,35-39.56,35,0"/>
      <path class="cls-2" d="M184.33,94.11c0-39.56,35-39.56,35,0"/>
      <path class="cls-2" d="M186,95c50.98,27.19,18.98,87.19-32,60"/>
      <circle class="cls-2" cx="83.5" cy="129.5" r="3.5"/>
      <circle class="cls-2" cx="105.5" cy="139.5" r="3.5"/>
      <circle class="cls-2" cx="105.5" cy="116.5" r="3.5"/>
      <circle class="cls-2" cx="237.5" cy="129.5" r="3.5"/>
      <circle class="cls-2" cx="215.5" cy="139.5" r="3.5"/>
      <circle class="cls-2" cx="215.5" cy="116.5" r="3.5"/>
    </g>
    <g>
      <path class="cls-3" d="M345.15,232.32c2.76-1.77,4.92-3.79,6.5-6.06,1.57-2.26,2.36-4.97,2.36-8.13v-75.05c0-3.15-.79-5.86-2.36-8.13-1.58-2.26-3.74-4.28-6.5-6.06-3.15-2.17-5.07-5.07-5.76-8.72-.69-3.64,1.23-6.65,5.76-9.01,3.94-2.17,8.02-3.94,12.26-5.32,4.23-1.38,10-3.05,17.29-5.02,8.87-2.36,15.02-2.22,18.47.44,3.44,2.66,5.17,7.54,5.17,14.63v5.91c7.09-8.67,14.67-14.77,22.75-18.32,8.08-3.55,15.85-4.88,23.34-3.99,7.48.89,14.28,3.69,20.39,8.42,6.1,4.73,10.64,11.03,13.59,18.91,7.88-11.42,16.84-19.25,26.89-23.49,10.05-4.23,19.55-5.27,28.51-3.1,8.96,2.17,16.5,7.29,22.61,15.37,6.1,8.08,9.16,18.72,9.16,31.91v70.62c0,2.76.83,5.27,2.51,7.53,1.67,2.27,3.79,4.48,6.35,6.65,3.35,2.76,5.02,5.76,5.02,9.01s-1.68,5.96-5.02,8.13c-2.76,1.77-6.94,3.1-12.56,3.99-5.61.89-11.52,1.38-17.73,1.48-6.21.1-12.22-.25-18.03-1.03-5.81-.79-10.39-2.07-13.74-3.84-4.53-2.36-6.45-5.36-5.76-9.01.69-3.64,2.61-6.55,5.76-8.72,2.76-1.77,4.92-3.79,6.5-6.06,1.57-2.26,2.36-4.97,2.36-8.13v-66.78c0-7.48-2.07-13.05-6.21-16.7-4.14-3.64-8.62-5.42-13.44-5.32-4.83.1-9.31,2.02-13.44,5.76-4.14,3.74-6.21,9.16-6.21,16.25v66.78c0,2.76.83,5.27,2.51,7.53,1.67,2.27,3.79,4.48,6.35,6.65,3.35,2.76,5.02,5.76,5.02,9.01s-1.68,5.96-5.02,8.13c-2.76,1.77-6.94,3.1-12.56,3.99-5.61.89-11.52,1.38-17.73,1.48-6.21.1-12.22-.25-18.02-1.03-5.81-.79-10.39-2.07-13.74-3.84-4.53-2.36-6.45-5.36-5.76-9.01.69-3.64,2.61-6.55,5.76-8.72,2.76-1.77,4.92-3.79,6.5-6.06,1.57-2.26,2.36-4.97,2.36-8.13v-66.78c0-7.48-2.07-13.05-6.21-16.7-4.14-3.64-8.62-5.42-13.44-5.32-4.83.1-9.31,2.02-13.44,5.76-4.14,3.74-6.21,9.16-6.21,16.25v66.78c0,2.76.83,5.27,2.51,7.53,1.67,2.27,3.79,4.48,6.35,6.65,3.35,2.76,5.02,5.76,5.02,9.01s-1.68,5.96-5.02,8.13c-2.76,1.77-6.94,3.1-12.56,3.99-5.61.89-11.52,1.38-17.73,1.48-6.21.1-12.22-.25-18.02-1.03-5.81-.79-10.39-2.07-13.74-3.84-4.53-2.36-6.45-5.36-5.76-9.01.69-3.64,2.61-6.55,5.76-8.72Z"/>
      <path class="cls-3" d="M656.31,253c-15.76,0-28.91-3.79-39.45-11.38-10.54-7.58-18.42-17.09-23.64-28.51-5.22-11.42-7.83-23.74-7.83-36.94s2.61-25.51,7.83-36.94c5.22-11.42,13.1-20.93,23.64-28.51,10.54-7.58,23.69-11.38,39.45-11.38s28.91,3.79,39.45,11.38c10.54,7.59,18.42,17.09,23.64,28.51,5.22,11.43,7.83,23.74,7.83,36.94s-2.61,25.51-7.83,36.94c-5.22,11.43-13.1,20.93-23.64,28.51-10.54,7.59-23.69,11.38-39.45,11.38ZM656.31,223.45c5.91,0,10.79-2.31,14.63-6.94,3.84-4.63,6.75-10.49,8.72-17.58,1.97-7.09,2.96-14.67,2.96-22.75s-.94-15.66-2.81-22.75c-1.88-7.09-4.78-12.95-8.72-17.58-3.94-4.63-8.87-6.94-14.77-6.94s-10.84,2.32-14.77,6.94c-3.94,4.63-6.9,10.49-8.87,17.58-1.97,7.09-2.91,14.68-2.81,22.75.1,8.08,1.18,15.66,3.25,22.75,2.07,7.09,5.02,12.96,8.87,17.58,3.84,4.63,8.62,6.94,14.33,6.94Z"/>
      <path class="cls-3" d="M815.86,253c-15.76,0-28.91-3.79-39.45-11.38-10.54-7.58-18.42-17.09-23.64-28.51-5.22-11.42-7.83-23.74-7.83-36.94s2.61-25.51,7.83-36.94c5.22-11.42,13.1-20.93,23.64-28.51,10.54-7.58,23.69-11.38,39.45-11.38s28.91,3.79,39.45,11.38c10.54,7.59,18.42,17.09,23.64,28.51,5.22,11.43,7.83,23.74,7.83,36.94s-2.61,25.51-7.83,36.94c-5.22,11.43-13.1,20.93-23.64,28.51-10.54,7.59-23.69,11.38-39.45,11.38ZM815.86,223.45c5.91,0,10.79-2.31,14.63-6.94,3.84-4.63,6.75-10.49,8.72-17.58,1.97-7.09,2.96-14.67,2.96-22.75s-.94-15.66-2.81-22.75c-1.88-7.09-4.78-12.95-8.72-17.58-3.94-4.63-8.87-6.94-14.77-6.94s-10.84,2.32-14.77,6.94c-3.94,4.63-6.9,10.49-8.87,17.58-1.97,7.09-2.91,14.68-2.81,22.75.1,8.08,1.18,15.66,3.25,22.75,2.07,7.09,5.02,12.96,8.87,17.58,3.84,4.63,8.62,6.94,14.33,6.94Z"/>
      <path class="cls-3" d="M994.33,228.48c-.99,5.72-4.19,10.79-9.6,15.22-5.42,4.43-12.26,6.84-20.54,7.24-10.25.39-19.11-1.57-26.59-5.91-7.49-4.33-13.69-10.14-18.62-17.43-4.93-7.29-8.57-15.66-10.93-25.12-2.36-9.46-3.45-19.1-3.25-28.96.19-9.85,1.62-19.35,4.29-28.51,2.66-9.16,6.6-17.14,11.82-23.93,5.22-6.8,11.67-12.01,19.35-15.66,7.68-3.64,16.55-4.68,26.59-3.1,2.96.4,5.86,1.28,8.72,2.66,2.85,1.38,5.56,2.95,8.13,4.73,2.56,1.77,4.77,3.69,6.65,5.76,1.87,2.07,3.2,4.19,3.99,6.35v-37.82c0-3.15-.79-5.86-2.36-8.13-1.58-2.26-3.74-4.28-6.5-6.06-3.15-2.17-5.07-5.07-5.76-8.72-.69-3.64,1.23-6.65,5.76-9.01,3.94-2.17,8.02-3.94,12.26-5.32,4.23-1.38,10-3.05,17.29-5.02,8.87-2.36,15.02-2.22,18.47.44,3.44,2.66,5.17,7.53,5.17,14.63v157.79c0,3.15.78,5.86,2.36,8.13,1.58,2.27,3.74,4.28,6.5,6.06,3.15,2.17,5.07,5.07,5.76,8.72.69,3.65-1.23,6.65-5.76,9.01-2.56,1.38-5.72,2.41-9.46,3.1-3.75.69-7.64,1.18-11.67,1.48-4.04.3-8.13.34-12.26.15-4.14-.2-7.88-.59-11.23-1.18-2.56-.39-4.43-1.28-5.61-2.66-1.18-1.38-2.02-3-2.51-4.88-.49-1.87-.69-4.04-.59-6.5.1-2.46.15-4.97.15-7.54ZM973.06,127.42c-5.52-.59-10.15,1.48-13.89,6.21-3.74,4.73-6.46,10.74-8.13,18.02-1.68,7.29-2.47,15.27-2.36,23.93.1,8.67,1.18,16.69,3.25,24.08s5.02,13.44,8.86,18.17c3.84,4.73,8.62,6.9,14.33,6.5,4.92-.39,9.06-2.95,12.41-7.68,3.35-4.73,5.91-10.64,7.68-17.73,1.77-7.09,2.71-14.67,2.81-22.75.1-8.08-.74-15.66-2.51-22.75-1.77-7.09-4.48-13.1-8.13-18.02-3.65-4.92-8.42-7.58-14.33-7.98Z"/>
    </g>
  </g>
</svg>